<mxfile host="app.diagrams.net" modified="2021-07-20T02:36:38.457Z" agent="5.0 (Windows)" etag="SBvZxMK3VTK8VO0fr88c" version="14.9.0" type="github">
  <diagram id="jbnTfESwMHYUUNhXBh-5" name="Page-1">
    <mxGraphModel dx="2272" dy="750" grid="1" gridSize="10" guides="1" tooltips="1" connect="1" arrows="1" fold="1" page="1" pageScale="1" pageWidth="850" pageHeight="1100" math="0" shadow="0">
      <root>
        <mxCell id="0" />
        <mxCell id="1" parent="0" />
        <mxCell id="fP1FVdoJ-tNQBdoDWyvL-1" value="" style="shape=table;html=1;whiteSpace=wrap;startSize=0;container=1;collapsible=0;childLayout=tableLayout;" vertex="1" parent="1">
          <mxGeometry x="280" y="190" width="467" height="480" as="geometry" />
        </mxCell>
        <mxCell id="fP1FVdoJ-tNQBdoDWyvL-2" value="" style="shape=partialRectangle;html=1;whiteSpace=wrap;collapsible=0;dropTarget=0;pointerEvents=0;fillColor=none;top=0;left=0;bottom=0;right=0;points=[[0,0.5],[1,0.5]];portConstraint=eastwest;" vertex="1" parent="fP1FVdoJ-tNQBdoDWyvL-1">
          <mxGeometry width="467" height="120" as="geometry" />
        </mxCell>
        <mxCell id="fP1FVdoJ-tNQBdoDWyvL-3" value="1" style="shape=partialRectangle;html=1;whiteSpace=wrap;connectable=0;fillColor=#d5e8d4;top=0;left=0;bottom=0;right=0;overflow=hidden;strokeColor=#82b366;" vertex="1" parent="fP1FVdoJ-tNQBdoDWyvL-2">
          <mxGeometry width="117" height="120" as="geometry" />
        </mxCell>
        <mxCell id="fP1FVdoJ-tNQBdoDWyvL-4" value="2" style="shape=partialRectangle;html=1;whiteSpace=wrap;connectable=0;fillColor=#d5e8d4;top=0;left=0;bottom=0;right=0;overflow=hidden;strokeColor=#82b366;" vertex="1" parent="fP1FVdoJ-tNQBdoDWyvL-2">
          <mxGeometry x="117" width="116" height="120" as="geometry" />
        </mxCell>
        <mxCell id="fP1FVdoJ-tNQBdoDWyvL-5" value="4" style="shape=partialRectangle;html=1;whiteSpace=wrap;connectable=0;fillColor=#d5e8d4;top=0;left=0;bottom=0;right=0;overflow=hidden;strokeColor=#82b366;" vertex="1" parent="fP1FVdoJ-tNQBdoDWyvL-2">
          <mxGeometry x="233" width="117" height="120" as="geometry" />
        </mxCell>
        <mxCell id="fP1FVdoJ-tNQBdoDWyvL-18" value="4" style="shape=partialRectangle;html=1;whiteSpace=wrap;connectable=0;fillColor=#d5e8d4;top=0;left=0;bottom=0;right=0;overflow=hidden;strokeColor=#82b366;" vertex="1" parent="fP1FVdoJ-tNQBdoDWyvL-2">
          <mxGeometry x="350" width="117" height="120" as="geometry" />
        </mxCell>
        <mxCell id="fP1FVdoJ-tNQBdoDWyvL-6" value="" style="shape=partialRectangle;html=1;whiteSpace=wrap;collapsible=0;dropTarget=0;pointerEvents=0;fillColor=none;top=0;left=0;bottom=0;right=0;points=[[0,0.5],[1,0.5]];portConstraint=eastwest;" vertex="1" parent="fP1FVdoJ-tNQBdoDWyvL-1">
          <mxGeometry y="120" width="467" height="120" as="geometry" />
        </mxCell>
        <mxCell id="fP1FVdoJ-tNQBdoDWyvL-7" value="" style="shape=partialRectangle;html=1;whiteSpace=wrap;connectable=0;fillColor=none;top=0;left=0;bottom=0;right=0;overflow=hidden;" vertex="1" parent="fP1FVdoJ-tNQBdoDWyvL-6">
          <mxGeometry width="117" height="120" as="geometry" />
        </mxCell>
        <mxCell id="fP1FVdoJ-tNQBdoDWyvL-8" value="2" style="shape=partialRectangle;html=1;whiteSpace=wrap;connectable=0;fillColor=none;top=0;left=0;bottom=0;right=0;overflow=hidden;" vertex="1" parent="fP1FVdoJ-tNQBdoDWyvL-6">
          <mxGeometry x="117" width="116" height="120" as="geometry" />
        </mxCell>
        <mxCell id="fP1FVdoJ-tNQBdoDWyvL-9" value="4" style="shape=partialRectangle;html=1;whiteSpace=wrap;connectable=0;fillColor=none;top=0;left=0;bottom=0;right=0;overflow=hidden;" vertex="1" parent="fP1FVdoJ-tNQBdoDWyvL-6">
          <mxGeometry x="233" width="117" height="120" as="geometry" />
        </mxCell>
        <mxCell id="fP1FVdoJ-tNQBdoDWyvL-19" value="4" style="shape=partialRectangle;html=1;whiteSpace=wrap;connectable=0;fillColor=none;top=0;left=0;bottom=0;right=0;overflow=hidden;" vertex="1" parent="fP1FVdoJ-tNQBdoDWyvL-6">
          <mxGeometry x="350" width="117" height="120" as="geometry" />
        </mxCell>
        <mxCell id="fP1FVdoJ-tNQBdoDWyvL-10" value="" style="shape=partialRectangle;html=1;whiteSpace=wrap;collapsible=0;dropTarget=0;pointerEvents=0;fillColor=none;top=0;left=0;bottom=0;right=0;points=[[0,0.5],[1,0.5]];portConstraint=eastwest;" vertex="1" parent="fP1FVdoJ-tNQBdoDWyvL-1">
          <mxGeometry y="240" width="467" height="120" as="geometry" />
        </mxCell>
        <mxCell id="fP1FVdoJ-tNQBdoDWyvL-11" value="" style="shape=partialRectangle;html=1;whiteSpace=wrap;connectable=0;fillColor=none;top=0;left=0;bottom=0;right=0;overflow=hidden;" vertex="1" parent="fP1FVdoJ-tNQBdoDWyvL-10">
          <mxGeometry width="117" height="120" as="geometry" />
        </mxCell>
        <mxCell id="fP1FVdoJ-tNQBdoDWyvL-12" value="2" style="shape=partialRectangle;html=1;whiteSpace=wrap;connectable=0;fillColor=none;top=0;left=0;bottom=0;right=0;overflow=hidden;" vertex="1" parent="fP1FVdoJ-tNQBdoDWyvL-10">
          <mxGeometry x="117" width="116" height="120" as="geometry" />
        </mxCell>
        <mxCell id="fP1FVdoJ-tNQBdoDWyvL-13" value="2" style="shape=partialRectangle;html=1;whiteSpace=wrap;connectable=0;fillColor=none;top=0;left=0;bottom=0;right=0;overflow=hidden;" vertex="1" parent="fP1FVdoJ-tNQBdoDWyvL-10">
          <mxGeometry x="233" width="117" height="120" as="geometry" />
        </mxCell>
        <mxCell id="fP1FVdoJ-tNQBdoDWyvL-20" style="shape=partialRectangle;html=1;whiteSpace=wrap;connectable=0;fillColor=none;top=0;left=0;bottom=0;right=0;overflow=hidden;" vertex="1" parent="fP1FVdoJ-tNQBdoDWyvL-10">
          <mxGeometry x="350" width="117" height="120" as="geometry" />
        </mxCell>
        <mxCell id="fP1FVdoJ-tNQBdoDWyvL-14" style="shape=partialRectangle;html=1;whiteSpace=wrap;collapsible=0;dropTarget=0;pointerEvents=0;fillColor=none;top=0;left=0;bottom=0;right=0;points=[[0,0.5],[1,0.5]];portConstraint=eastwest;" vertex="1" parent="fP1FVdoJ-tNQBdoDWyvL-1">
          <mxGeometry y="360" width="467" height="120" as="geometry" />
        </mxCell>
        <mxCell id="fP1FVdoJ-tNQBdoDWyvL-15" value="5" style="shape=partialRectangle;html=1;whiteSpace=wrap;connectable=0;fillColor=#d5e8d4;top=0;left=0;bottom=0;right=0;overflow=hidden;strokeColor=#82b366;" vertex="1" parent="fP1FVdoJ-tNQBdoDWyvL-14">
          <mxGeometry width="117" height="120" as="geometry" />
        </mxCell>
        <mxCell id="fP1FVdoJ-tNQBdoDWyvL-16" value="5" style="shape=partialRectangle;html=1;whiteSpace=wrap;connectable=0;fillColor=#d5e8d4;top=0;left=0;bottom=0;right=0;overflow=hidden;strokeColor=#82b366;" vertex="1" parent="fP1FVdoJ-tNQBdoDWyvL-14">
          <mxGeometry x="117" width="116" height="120" as="geometry" />
        </mxCell>
        <mxCell id="fP1FVdoJ-tNQBdoDWyvL-17" value="5" style="shape=partialRectangle;html=1;whiteSpace=wrap;connectable=0;fillColor=#d5e8d4;top=0;left=0;bottom=0;right=0;overflow=hidden;strokeColor=#82b366;" vertex="1" parent="fP1FVdoJ-tNQBdoDWyvL-14">
          <mxGeometry x="233" width="117" height="120" as="geometry" />
        </mxCell>
        <mxCell id="fP1FVdoJ-tNQBdoDWyvL-21" value="5" style="shape=partialRectangle;html=1;whiteSpace=wrap;connectable=0;fillColor=#d5e8d4;top=0;left=0;bottom=0;right=0;overflow=hidden;strokeColor=#82b366;" vertex="1" parent="fP1FVdoJ-tNQBdoDWyvL-14">
          <mxGeometry x="350" width="117" height="120" as="geometry" />
        </mxCell>
        <mxCell id="fP1FVdoJ-tNQBdoDWyvL-23" style="edgeStyle=orthogonalEdgeStyle;rounded=0;orthogonalLoop=1;jettySize=auto;html=1;exitX=0;exitY=0;exitDx=120;exitDy=70;exitPerimeter=0;entryX=0;entryY=0.5;entryDx=0;entryDy=0;" edge="1" parent="1" source="fP1FVdoJ-tNQBdoDWyvL-22" target="fP1FVdoJ-tNQBdoDWyvL-2">
          <mxGeometry relative="1" as="geometry" />
        </mxCell>
        <mxCell id="fP1FVdoJ-tNQBdoDWyvL-22" value="&lt;div&gt;ID(int): Define shape&lt;br&gt;&lt;/div&gt;" style="shape=cube;whiteSpace=wrap;html=1;boundedLbl=1;backgroundOutline=1;darkOpacity=0.05;darkOpacity2=0.1;" vertex="1" parent="1">
          <mxGeometry x="-80" y="180" width="120" height="120" as="geometry" />
        </mxCell>
        <mxCell id="fP1FVdoJ-tNQBdoDWyvL-30" style="edgeStyle=orthogonalEdgeStyle;rounded=0;orthogonalLoop=1;jettySize=auto;html=1;exitX=0;exitY=0;exitDx=120;exitDy=70;exitPerimeter=0;entryX=0;entryY=0.5;entryDx=0;entryDy=0;fillColor=#d5e8d4;strokeColor=#82b366;strokeWidth=3;" edge="1" parent="1" source="fP1FVdoJ-tNQBdoDWyvL-24" target="fP1FVdoJ-tNQBdoDWyvL-14">
          <mxGeometry relative="1" as="geometry" />
        </mxCell>
        <mxCell id="fP1FVdoJ-tNQBdoDWyvL-24" value="5" style="shape=cube;whiteSpace=wrap;html=1;boundedLbl=1;backgroundOutline=1;darkOpacity=0.05;darkOpacity2=0.1;" vertex="1" parent="1">
          <mxGeometry x="-20" y="540" width="120" height="120" as="geometry" />
        </mxCell>
        <mxCell id="fP1FVdoJ-tNQBdoDWyvL-25" value="5" style="shape=cube;whiteSpace=wrap;html=1;boundedLbl=1;backgroundOutline=1;darkOpacity=0.05;darkOpacity2=0.1;" vertex="1" parent="1">
          <mxGeometry x="-120" y="540" width="120" height="120" as="geometry" />
        </mxCell>
        <mxCell id="fP1FVdoJ-tNQBdoDWyvL-26" value="5" style="shape=cube;whiteSpace=wrap;html=1;boundedLbl=1;backgroundOutline=1;darkOpacity=0.05;darkOpacity2=0.1;" vertex="1" parent="1">
          <mxGeometry x="-220" y="540" width="120" height="120" as="geometry" />
        </mxCell>
        <mxCell id="fP1FVdoJ-tNQBdoDWyvL-27" value="5" style="shape=cube;whiteSpace=wrap;html=1;boundedLbl=1;backgroundOutline=1;darkOpacity=0.05;darkOpacity2=0.1;" vertex="1" parent="1">
          <mxGeometry x="-320" y="540" width="120" height="120" as="geometry" />
        </mxCell>
        <mxCell id="fP1FVdoJ-tNQBdoDWyvL-31" value="" style="endArrow=classic;html=1;exitX=0;exitY=0;exitDx=50;exitDy=0;exitPerimeter=0;entryX=0;entryY=0.5;entryDx=0;entryDy=0;edgeStyle=orthogonalEdgeStyle;strokeColor=#FF0D0D;strokeWidth=3;" edge="1" parent="1" source="fP1FVdoJ-tNQBdoDWyvL-24" target="fP1FVdoJ-tNQBdoDWyvL-6">
          <mxGeometry relative="1" as="geometry">
            <mxPoint x="260" y="530" as="sourcePoint" />
            <mxPoint x="360" y="530" as="targetPoint" />
          </mxGeometry>
        </mxCell>
      </root>
    </mxGraphModel>
  </diagram>
</mxfile>
